<?xml version="1.0" encoding="utf-8"?>
<!-- Generator: Adobe Illustrator 23.0.2, SVG Export Plug-In . SVG Version: 6.00 Build 0)  -->
<svg version="1.1" id="图层_1" xmlns="http://www.w3.org/2000/svg" xmlns:xlink="http://www.w3.org/1999/xlink" x="0px" y="0px"
	 viewBox="0 0 1024 1024" style="enable-background:new 0 0 1024 1024;" xml:space="preserve">
<style type="text/css">
	.st0{opacity:0.8;fill:#4D73B6;}
	.st1{opacity:0.8;fill:#44BDDC;}
	.st2{fill:#44BDDC;}
	.st3{opacity:0.8;fill:#3D6AB2;}
</style>
<g>
	<g>
		<circle class="st0" cx="89.43" cy="240.85" r="25.61"/>
		<circle class="st1" cx="134.25" cy="144.4" r="25.61"/>
		<circle class="st0" cx="920.18" cy="189.22" r="25.61"/>
	</g>
	<path class="st2" d="M547.94,719.93c-157.47,0-244.85-126.12-269.73-196.11c-7.11-19.99,3.34-41.96,23.33-49.07
		c19.97-7.09,41.88,3.3,49.03,23.22c2.47,6.75,59.15,156.89,215.35,144.41c21.15-1.7,39.65,14.12,41.33,35.27
		c1.67,21.15-14.12,39.65-35.27,41.33C563.79,719.61,555.77,719.93,547.94,719.93z"/>
	<path class="st3" d="M517.62,853.9c-207.03,0-375.46-168.43-375.46-375.46c0-207.02,168.43-375.45,375.46-375.45
		c207.02,0,375.45,168.43,375.45,375.45C893.06,685.47,724.64,853.9,517.62,853.9L517.62,853.9z M517.62,168.43
		c-170.94,0-310.02,139.07-310.02,310.01c0,170.95,139.08,310.02,310.02,310.02c170.94,0,310-139.07,310-310.02
		C827.62,307.5,688.55,168.43,517.62,168.43L517.62,168.43z M517.62,168.43"/>
	<path class="st3" d="M927.46,921.01c-8.37,0-16.74-3.19-23.14-9.59L744.4,751.49c-12.78-12.77-12.78-33.5,0-46.27
		c12.78-12.78,33.49-12.78,46.27,0L950.6,865.16c12.78,12.77,12.78,33.5,0,46.27C944.2,917.82,935.83,921.01,927.46,921.01
		L927.46,921.01z M927.46,921.01"/>
</g>
</svg>
